<mxfile host="app.diagrams.net" modified="2024-06-18T09:26:13.439Z" agent="Mozilla/5.0 (Macintosh; Intel Mac OS X 10_15_7) AppleWebKit/537.36 (KHTML, like Gecko) Chrome/124.0.0.0 Safari/537.36 Edg/124.0.0.0" etag="BaNgMBaaYGOO5BrjHUsA" version="24.5.3" type="device">
  <diagram name="Page-1" id="2ca16b54-16f6-2749-3443-fa8db7711227">
    <mxGraphModel dx="2666" dy="1859" grid="1" gridSize="10" guides="1" tooltips="1" connect="1" arrows="1" fold="1" page="1" pageScale="1" pageWidth="1100" pageHeight="850" background="none" math="0" shadow="0">
      <root>
        <mxCell id="0" />
        <mxCell id="1" parent="0" />
        <mxCell id="2ed32ef02a7f4228-1" value="&lt;div style=&quot;box-sizing:border-box;width:100%;background:#e4e4e4;padding:2px;&quot;&gt;Users&lt;/div&gt;&lt;table style=&quot;width:100%;font-size:1em;&quot; cellpadding=&quot;2&quot; cellspacing=&quot;0&quot;&gt;&lt;tbody&gt;&lt;tr&gt;&lt;td&gt;PK&lt;/td&gt;&lt;td&gt;id&lt;/td&gt;&lt;/tr&gt;&lt;tr&gt;&lt;td&gt;&lt;br&gt;&lt;/td&gt;&lt;td&gt;full_name&lt;br&gt;email&lt;br&gt;password&lt;br&gt;phone?&lt;br&gt;role [default=user]&lt;br&gt;joinAt&lt;br&gt;refresh_token?&lt;br&gt;isDeleted [default=false]&lt;br&gt;avatar?&lt;br&gt;facebook_app_id?&lt;br&gt;google_app_id?&lt;br&gt;&lt;br&gt;&lt;/td&gt;&lt;/tr&gt;&lt;tr&gt;&lt;td&gt;&lt;br&gt;&lt;/td&gt;&lt;td&gt;&lt;br&gt;&lt;/td&gt;&lt;/tr&gt;&lt;/tbody&gt;&lt;/table&gt;" style="verticalAlign=top;align=left;overflow=fill;html=1;rounded=0;shadow=0;comic=0;labelBackgroundColor=none;strokeWidth=1;fontFamily=Verdana;fontSize=12" parent="1" vertex="1">
          <mxGeometry x="-30" y="-120" width="180" height="260" as="geometry" />
        </mxCell>
        <mxCell id="Ky_lYos2wtPjDglu5sWu-3" value="&lt;div style=&quot;box-sizing:border-box;width:100%;background:#e4e4e4;padding:2px;&quot;&gt;Skills&lt;/div&gt;&lt;table style=&quot;width:100%;font-size:1em;&quot; cellpadding=&quot;2&quot; cellspacing=&quot;0&quot;&gt;&lt;tbody&gt;&lt;tr&gt;&lt;td&gt;PK&lt;/td&gt;&lt;td&gt;id&lt;/td&gt;&lt;/tr&gt;&lt;tr&gt;&lt;td&gt;&lt;br&gt;&lt;/td&gt;&lt;td&gt;skill_name&lt;/td&gt;&lt;/tr&gt;&lt;tr&gt;&lt;td&gt;FK&lt;/td&gt;&lt;td&gt;seller_id&lt;/td&gt;&lt;/tr&gt;&lt;/tbody&gt;&lt;/table&gt;" style="verticalAlign=top;align=left;overflow=fill;html=1;rounded=0;shadow=0;comic=0;labelBackgroundColor=none;strokeWidth=1;fontFamily=Verdana;fontSize=12" parent="1" vertex="1">
          <mxGeometry x="-120" y="-340" width="180" height="90" as="geometry" />
        </mxCell>
        <mxCell id="Ky_lYos2wtPjDglu5sWu-4" value="&lt;div style=&quot;box-sizing:border-box;width:100%;background:#e4e4e4;padding:2px;&quot;&gt;Certificate&lt;/div&gt;&lt;table style=&quot;width:100%;font-size:1em;&quot; cellpadding=&quot;2&quot; cellspacing=&quot;0&quot;&gt;&lt;tbody&gt;&lt;tr&gt;&lt;td&gt;PK&lt;/td&gt;&lt;td&gt;id&lt;/td&gt;&lt;/tr&gt;&lt;tr&gt;&lt;td&gt;&lt;br&gt;&lt;/td&gt;&lt;td&gt;certi_name&lt;/td&gt;&lt;/tr&gt;&lt;tr&gt;&lt;td&gt;FK&lt;span style=&quot;white-space: pre;&quot;&gt;&#x9;&lt;/span&gt;&lt;/td&gt;&lt;td&gt;seller_id&lt;/td&gt;&lt;/tr&gt;&lt;/tbody&gt;&lt;/table&gt;" style="verticalAlign=top;align=left;overflow=fill;html=1;rounded=0;shadow=0;comic=0;labelBackgroundColor=none;strokeWidth=1;fontFamily=Verdana;fontSize=12" parent="1" vertex="1">
          <mxGeometry x="80" y="-400" width="180" height="90" as="geometry" />
        </mxCell>
        <mxCell id="Ky_lYos2wtPjDglu5sWu-6" value="" style="edgeStyle=orthogonalEdgeStyle;html=1;endArrow=ERoneToMany;startArrow=ERmandOne;labelBackgroundColor=none;fontFamily=Verdana;fontSize=12;align=left;exitX=0.25;exitY=0;entryX=0.5;entryY=1;exitDx=0;exitDy=0;entryDx=0;entryDy=0;" parent="1" source="2ed32ef02a7f4228-1" target="Ky_lYos2wtPjDglu5sWu-3" edge="1">
          <mxGeometry width="100" height="100" relative="1" as="geometry">
            <mxPoint x="279.99999999999955" y="-440" as="sourcePoint" />
            <mxPoint x="264.76" y="-60" as="targetPoint" />
          </mxGeometry>
        </mxCell>
        <mxCell id="Ky_lYos2wtPjDglu5sWu-7" value="" style="edgeStyle=orthogonalEdgeStyle;html=1;endArrow=ERoneToMany;startArrow=ERmandOne;labelBackgroundColor=none;fontFamily=Verdana;fontSize=12;align=left;exitX=0.5;exitY=0;entryX=0.5;entryY=1;exitDx=0;exitDy=0;entryDx=0;entryDy=0;" parent="1" source="2ed32ef02a7f4228-1" target="Ky_lYos2wtPjDglu5sWu-4" edge="1">
          <mxGeometry width="100" height="100" relative="1" as="geometry">
            <mxPoint x="329.99999999999955" y="-440" as="sourcePoint" />
            <mxPoint x="80" y="-200" as="targetPoint" />
          </mxGeometry>
        </mxCell>
        <mxCell id="Ky_lYos2wtPjDglu5sWu-8" value="&lt;div style=&quot;box-sizing:border-box;width:100%;background:#e4e4e4;padding:2px;&quot;&gt;Jobs&lt;/div&gt;&lt;table style=&quot;width:100%;font-size:1em;&quot; cellpadding=&quot;2&quot; cellspacing=&quot;0&quot;&gt;&lt;tbody&gt;&lt;tr&gt;&lt;td&gt;PK&lt;/td&gt;&lt;td&gt;id&lt;/td&gt;&lt;/tr&gt;&lt;tr&gt;&lt;td&gt;&lt;br&gt;&lt;br&gt;&lt;br&gt;&lt;br&gt;&lt;br&gt;&lt;br&gt;FK&lt;br&gt;FK&lt;/td&gt;&lt;td&gt;job_name&lt;br&gt;job_desc&lt;br&gt;rate [default=0]&lt;br&gt;stars [default=0]&lt;br&gt;isDeleted [default=false]&lt;br&gt;job_image?&lt;br&gt;createdAt&lt;br&gt;sub_id&lt;br&gt;seller_id&lt;br&gt;&lt;br&gt;&lt;/td&gt;&lt;/tr&gt;&lt;tr&gt;&lt;td&gt;&lt;br&gt;&lt;/td&gt;&lt;td&gt;&lt;br&gt;&lt;/td&gt;&lt;/tr&gt;&lt;/tbody&gt;&lt;/table&gt;" style="verticalAlign=top;align=left;overflow=fill;html=1;rounded=0;shadow=0;comic=0;labelBackgroundColor=none;strokeWidth=1;fontFamily=Verdana;fontSize=12" parent="1" vertex="1">
          <mxGeometry x="650" y="20" width="180" height="170" as="geometry" />
        </mxCell>
        <mxCell id="Ky_lYos2wtPjDglu5sWu-12" style="edgeStyle=orthogonalEdgeStyle;rounded=0;orthogonalLoop=1;jettySize=auto;html=1;exitX=0;exitY=0.5;exitDx=0;exitDy=0;exitPerimeter=0;entryX=0.887;entryY=1.001;entryDx=0;entryDy=0;entryPerimeter=0;" parent="1" source="Ky_lYos2wtPjDglu5sWu-11" target="Ky_lYos2wtPjDglu5sWu-8" edge="1">
          <mxGeometry relative="1" as="geometry">
            <mxPoint x="965" y="200" as="sourcePoint" />
          </mxGeometry>
        </mxCell>
        <mxCell id="Ky_lYos2wtPjDglu5sWu-11" value="rate: (total count of rate_num)&lt;div&gt;&lt;span style=&quot;background-color: initial;&quot;&gt;stars: (total rate_num) / rate&lt;/span&gt;&lt;/div&gt;" style="shape=note;whiteSpace=wrap;html=1;backgroundOutline=1;darkOpacity=0.05;" parent="1" vertex="1">
          <mxGeometry x="840" y="210" width="170" height="100" as="geometry" />
        </mxCell>
        <mxCell id="Ky_lYos2wtPjDglu5sWu-17" value="&lt;div style=&quot;box-sizing:border-box;width:100%;background:#e4e4e4;padding:2px;&quot;&gt;Types&lt;/div&gt;&lt;table style=&quot;width:100%;font-size:1em;&quot; cellpadding=&quot;2&quot; cellspacing=&quot;0&quot;&gt;&lt;tbody&gt;&lt;tr&gt;&lt;td&gt;PK&lt;/td&gt;&lt;td&gt;id&lt;/td&gt;&lt;/tr&gt;&lt;tr&gt;&lt;td&gt;&lt;br&gt;&lt;/td&gt;&lt;td&gt;type_name&lt;/td&gt;&lt;/tr&gt;&lt;/tbody&gt;&lt;/table&gt;" style="verticalAlign=top;align=left;overflow=fill;html=1;rounded=0;shadow=0;comic=0;labelBackgroundColor=none;strokeWidth=1;fontFamily=Verdana;fontSize=12" parent="1" vertex="1">
          <mxGeometry x="910" y="-330" width="180" height="90" as="geometry" />
        </mxCell>
        <mxCell id="Ky_lYos2wtPjDglu5sWu-20" value="&lt;div style=&quot;box-sizing:border-box;width:100%;background:#e4e4e4;padding:2px;&quot;&gt;Subs&lt;/div&gt;&lt;table style=&quot;width:100%;font-size:1em;&quot; cellpadding=&quot;2&quot; cellspacing=&quot;0&quot;&gt;&lt;tbody&gt;&lt;tr&gt;&lt;td&gt;PK&lt;/td&gt;&lt;td&gt;id&lt;/td&gt;&lt;/tr&gt;&lt;tr&gt;&lt;td&gt;FK&lt;/td&gt;&lt;td&gt;sub_name&lt;br&gt;type_id&lt;br&gt;&lt;br&gt;&lt;/td&gt;&lt;/tr&gt;&lt;/tbody&gt;&lt;/table&gt;" style="verticalAlign=top;align=left;overflow=fill;html=1;rounded=0;shadow=0;comic=0;labelBackgroundColor=none;strokeWidth=1;fontFamily=Verdana;fontSize=12" parent="1" vertex="1">
          <mxGeometry x="910" y="-70" width="180" height="110" as="geometry" />
        </mxCell>
        <mxCell id="Ky_lYos2wtPjDglu5sWu-21" value="" style="edgeStyle=orthogonalEdgeStyle;html=1;endArrow=ERoneToMany;startArrow=ERmandOne;labelBackgroundColor=none;fontFamily=Verdana;fontSize=12;align=left;exitX=0.5;exitY=1;exitDx=0;exitDy=0;" parent="1" source="Ky_lYos2wtPjDglu5sWu-20" edge="1">
          <mxGeometry width="100" height="100" relative="1" as="geometry">
            <mxPoint x="900" y="-10" as="sourcePoint" />
            <mxPoint x="820" y="110" as="targetPoint" />
            <Array as="points">
              <mxPoint x="1000" y="110" />
              <mxPoint x="820" y="110" />
            </Array>
          </mxGeometry>
        </mxCell>
        <mxCell id="Ky_lYos2wtPjDglu5sWu-22" value="&lt;div style=&quot;box-sizing:border-box;width:100%;background:#e4e4e4;padding:2px;&quot;&gt;ChildTypes&lt;/div&gt;&lt;table style=&quot;width:100%;font-size:1em;&quot; cellpadding=&quot;2&quot; cellspacing=&quot;0&quot;&gt;&lt;tbody&gt;&lt;tr&gt;&lt;td&gt;PK&lt;/td&gt;&lt;td&gt;id&lt;/td&gt;&lt;/tr&gt;&lt;tr&gt;&lt;td&gt;&lt;br&gt;FK&lt;/td&gt;&lt;td&gt;child_type_name&lt;br&gt;type_id&lt;/td&gt;&lt;/tr&gt;&lt;/tbody&gt;&lt;/table&gt;" style="verticalAlign=top;align=left;overflow=fill;html=1;rounded=0;shadow=0;comic=0;labelBackgroundColor=none;strokeWidth=1;fontFamily=Verdana;fontSize=12" parent="1" vertex="1">
          <mxGeometry x="910" y="-190" width="180" height="90" as="geometry" />
        </mxCell>
        <mxCell id="Ky_lYos2wtPjDglu5sWu-23" value="" style="edgeStyle=orthogonalEdgeStyle;html=1;endArrow=ERoneToMany;startArrow=ERmandOne;labelBackgroundColor=none;fontFamily=Verdana;fontSize=12;align=left;exitX=0.5;exitY=1;exitDx=0;exitDy=0;entryX=0.5;entryY=0;entryDx=0;entryDy=0;" parent="1" source="Ky_lYos2wtPjDglu5sWu-17" target="Ky_lYos2wtPjDglu5sWu-22" edge="1">
          <mxGeometry width="100" height="100" relative="1" as="geometry">
            <mxPoint x="769.8" y="-200" as="sourcePoint" />
            <mxPoint x="770" y="-170" as="targetPoint" />
            <Array as="points" />
          </mxGeometry>
        </mxCell>
        <mxCell id="Ky_lYos2wtPjDglu5sWu-24" value="" style="edgeStyle=orthogonalEdgeStyle;html=1;endArrow=ERoneToMany;startArrow=ERmandOne;labelBackgroundColor=none;fontFamily=Verdana;fontSize=12;align=left;exitX=0.5;exitY=1;exitDx=0;exitDy=0;entryX=0.5;entryY=0;entryDx=0;entryDy=0;" parent="1" source="Ky_lYos2wtPjDglu5sWu-22" target="Ky_lYos2wtPjDglu5sWu-20" edge="1">
          <mxGeometry width="100" height="100" relative="1" as="geometry">
            <mxPoint x="769.68" y="-70" as="sourcePoint" />
            <mxPoint x="769.68" y="-30" as="targetPoint" />
            <Array as="points" />
          </mxGeometry>
        </mxCell>
        <mxCell id="Ky_lYos2wtPjDglu5sWu-25" value="&lt;div style=&quot;box-sizing:border-box;width:100%;background:#e4e4e4;padding:2px;&quot;&gt;Comments&lt;/div&gt;&lt;table style=&quot;width:100%;font-size:1em;&quot; cellpadding=&quot;2&quot; cellspacing=&quot;0&quot;&gt;&lt;tbody&gt;&lt;tr&gt;&lt;td&gt;FK&lt;/td&gt;&lt;td&gt;user_id (PK)&lt;/td&gt;&lt;/tr&gt;&lt;tr&gt;&lt;td&gt;FK&lt;/td&gt;&lt;td&gt;job_id (PK)&lt;/td&gt;&lt;/tr&gt;&lt;tr&gt;&lt;td&gt;&lt;br&gt;&lt;/td&gt;&lt;td&gt;createdAt&lt;br&gt;content&lt;br&gt;rate_num&lt;br&gt;createdAt&lt;br&gt;isDeleted [default=false]&lt;/td&gt;&lt;/tr&gt;&lt;/tbody&gt;&lt;/table&gt;" style="verticalAlign=top;align=left;overflow=fill;html=1;rounded=0;shadow=0;comic=0;labelBackgroundColor=none;strokeWidth=1;fontFamily=Verdana;fontSize=12" parent="1" vertex="1">
          <mxGeometry x="310" y="270" width="180" height="140" as="geometry" />
        </mxCell>
        <mxCell id="Ky_lYos2wtPjDglu5sWu-26" value="" style="edgeStyle=orthogonalEdgeStyle;html=1;endArrow=ERoneToMany;startArrow=ERmandOne;labelBackgroundColor=none;fontFamily=Verdana;fontSize=12;align=left;entryX=0;entryY=0.5;entryDx=0;entryDy=0;" parent="1" target="Ky_lYos2wtPjDglu5sWu-25" edge="1" source="2ed32ef02a7f4228-1">
          <mxGeometry width="100" height="100" relative="1" as="geometry">
            <mxPoint x="140.0200000000001" y="129.99999999999977" as="sourcePoint" />
            <mxPoint x="140" y="228" as="targetPoint" />
            <Array as="points">
              <mxPoint x="140" y="240" />
              <mxPoint x="138" y="240" />
              <mxPoint x="138" y="340" />
            </Array>
          </mxGeometry>
        </mxCell>
        <mxCell id="Ky_lYos2wtPjDglu5sWu-27" value="" style="edgeStyle=orthogonalEdgeStyle;html=1;endArrow=ERoneToMany;startArrow=ERmandOne;labelBackgroundColor=none;fontFamily=Verdana;fontSize=12;align=left;exitX=0.25;exitY=1;exitDx=0;exitDy=0;entryX=1;entryY=0.25;entryDx=0;entryDy=0;" parent="1" target="Ky_lYos2wtPjDglu5sWu-25" edge="1" source="Ky_lYos2wtPjDglu5sWu-8">
          <mxGeometry width="100" height="100" relative="1" as="geometry">
            <mxPoint x="680" y="267.5" as="sourcePoint" />
            <mxPoint x="300.72000000000025" y="289.8399999999999" as="targetPoint" />
          </mxGeometry>
        </mxCell>
        <mxCell id="Ky_lYos2wtPjDglu5sWu-31" value="" style="edgeStyle=orthogonalEdgeStyle;html=1;endArrow=ERoneToMany;startArrow=ERmandOne;labelBackgroundColor=none;fontFamily=Verdana;fontSize=12;align=left;exitX=0.25;exitY=0;exitDx=0;exitDy=0;" parent="1" edge="1">
          <mxGeometry width="100" height="100" relative="1" as="geometry">
            <mxPoint x="692.5" y="20" as="sourcePoint" />
            <mxPoint x="687.5" y="-89.99999999999989" as="targetPoint" />
            <Array as="points">
              <mxPoint x="688" y="20" />
              <mxPoint x="688" y="-20" />
              <mxPoint x="688" y="-20" />
            </Array>
          </mxGeometry>
        </mxCell>
        <mxCell id="Ky_lYos2wtPjDglu5sWu-32" value="&lt;div style=&quot;box-sizing:border-box;width:100%;background:#e4e4e4;padding:2px;&quot;&gt;Hires&lt;/div&gt;&lt;table style=&quot;width:100%;font-size:1em;&quot; cellpadding=&quot;2&quot; cellspacing=&quot;0&quot;&gt;&lt;tbody&gt;&lt;tr&gt;&lt;td&gt;PK&lt;/td&gt;&lt;td&gt;id&lt;/td&gt;&lt;/tr&gt;&lt;tr&gt;&lt;td&gt;&lt;br&gt;&lt;br&gt;&lt;br&gt;&lt;br&gt;&lt;br&gt;&lt;/td&gt;&lt;td&gt;createdAt&lt;br&gt;isDone [default=false]&lt;br&gt;price&lt;br&gt;user_confirm [default = false]&lt;br&gt;method&lt;br&gt;&lt;/td&gt;&lt;/tr&gt;&lt;tr&gt;&lt;td&gt;FK&lt;br&gt;FK&lt;/td&gt;&lt;td&gt;user_id&lt;br&gt;service_id&lt;br&gt;&lt;/td&gt;&lt;/tr&gt;&lt;/tbody&gt;&lt;/table&gt;" style="verticalAlign=top;align=left;overflow=fill;html=1;rounded=0;shadow=0;comic=0;labelBackgroundColor=none;strokeWidth=1;fontFamily=Verdana;fontSize=12" parent="1" vertex="1">
          <mxGeometry x="240" y="-110" width="220" height="160" as="geometry" />
        </mxCell>
        <mxCell id="Ky_lYos2wtPjDglu5sWu-34" value="" style="edgeStyle=orthogonalEdgeStyle;html=1;endArrow=ERoneToMany;startArrow=ERmandOne;labelBackgroundColor=none;fontFamily=Verdana;fontSize=12;align=left;exitX=1;exitY=0.25;exitDx=0;exitDy=0;entryX=0;entryY=0.5;entryDx=0;entryDy=0;" parent="1" source="2ed32ef02a7f4228-1" target="Ky_lYos2wtPjDglu5sWu-32" edge="1">
          <mxGeometry width="100" height="100" relative="1" as="geometry">
            <mxPoint x="280" y="-60" as="sourcePoint" />
            <mxPoint x="280" y="210" as="targetPoint" />
          </mxGeometry>
        </mxCell>
        <mxCell id="Ky_lYos2wtPjDglu5sWu-35" value="" style="edgeStyle=orthogonalEdgeStyle;html=1;endArrow=ERoneToMany;startArrow=ERmandOne;labelBackgroundColor=none;fontFamily=Verdana;fontSize=12;align=left;exitX=0;exitY=0.5;exitDx=0;exitDy=0;entryX=1;entryY=0.5;entryDx=0;entryDy=0;" parent="1" source="Ky_lYos2wtPjDglu5sWu-29" target="Ky_lYos2wtPjDglu5sWu-32" edge="1">
          <mxGeometry width="100" height="100" relative="1" as="geometry">
            <mxPoint x="390" y="90" as="sourcePoint" />
            <mxPoint x="590" y="142" as="targetPoint" />
          </mxGeometry>
        </mxCell>
        <mxCell id="Ky_lYos2wtPjDglu5sWu-29" value="&lt;div style=&quot;box-sizing:border-box;width:100%;background:#e4e4e4;padding:2px;&quot;&gt;Services&lt;/div&gt;&lt;table style=&quot;width:100%;font-size:1em;&quot; cellpadding=&quot;2&quot; cellspacing=&quot;0&quot;&gt;&lt;tbody&gt;&lt;tr&gt;&lt;td&gt;PK&lt;/td&gt;&lt;td&gt;id&lt;/td&gt;&lt;/tr&gt;&lt;tr&gt;&lt;td&gt;&lt;br&gt;&lt;br&gt;&lt;br&gt;&lt;br&gt;&lt;br&gt;FK&lt;br&gt;&lt;br&gt;&lt;/td&gt;&lt;td&gt;price&lt;br&gt;desc&lt;br&gt;benefit&lt;br&gt;delivery_date&lt;br&gt;job_id&lt;/td&gt;&lt;/tr&gt;&lt;/tbody&gt;&lt;/table&gt;" style="verticalAlign=top;align=left;overflow=fill;html=1;rounded=0;shadow=0;comic=0;labelBackgroundColor=none;strokeWidth=1;fontFamily=Verdana;fontSize=12" parent="1" vertex="1">
          <mxGeometry x="600" y="-230" width="180" height="140" as="geometry" />
        </mxCell>
        <mxCell id="BOB6fcGm27SXABBLaqFK-4" value="" style="edgeStyle=orthogonalEdgeStyle;html=1;endArrow=ERoneToMany;startArrow=ERmandOne;labelBackgroundColor=none;fontFamily=Verdana;fontSize=12;align=left;" edge="1" parent="1" target="Ky_lYos2wtPjDglu5sWu-8">
          <mxGeometry width="100" height="100" relative="1" as="geometry">
            <mxPoint x="140" y="95" as="sourcePoint" />
            <mxPoint x="630" y="79.99999999999977" as="targetPoint" />
            <Array as="points">
              <mxPoint x="150" y="95" />
              <mxPoint x="150" y="96" />
              <mxPoint x="444" y="96" />
              <mxPoint x="444" y="80" />
            </Array>
          </mxGeometry>
        </mxCell>
        <mxCell id="BOB6fcGm27SXABBLaqFK-5" value="create (role = saler)&lt;div&gt;&lt;br&gt;&lt;/div&gt;" style="edgeLabel;html=1;align=center;verticalAlign=middle;resizable=0;points=[];" vertex="1" connectable="0" parent="BOB6fcGm27SXABBLaqFK-4">
          <mxGeometry x="-0.1298" y="-1" relative="1" as="geometry">
            <mxPoint x="-19" y="8" as="offset" />
          </mxGeometry>
        </mxCell>
        <mxCell id="BOB6fcGm27SXABBLaqFK-13" style="edgeStyle=orthogonalEdgeStyle;rounded=0;orthogonalLoop=1;jettySize=auto;html=1;entryX=0;entryY=0.25;entryDx=0;entryDy=0;" edge="1" parent="1" source="BOB6fcGm27SXABBLaqFK-12" target="Ky_lYos2wtPjDglu5sWu-32">
          <mxGeometry relative="1" as="geometry" />
        </mxCell>
        <mxCell id="BOB6fcGm27SXABBLaqFK-12" value="isDone: seller&lt;div&gt;user_confirm: user&lt;/div&gt;&lt;div&gt;&lt;br&gt;&lt;/div&gt;&lt;div&gt;if only isDone == true =&amp;gt; user can confirm&amp;nbsp;&lt;/div&gt;&lt;div&gt;&lt;br&gt;&lt;/div&gt;&lt;div&gt;if user_confirm == true =&amp;gt; update seller&#39;s&amp;nbsp;&lt;/div&gt;&lt;div&gt;accountMoney&amp;nbsp;&lt;/div&gt;" style="shape=note;whiteSpace=wrap;html=1;backgroundOutline=1;darkOpacity=0.05;" vertex="1" parent="1">
          <mxGeometry x="250" y="-280" width="230" height="100" as="geometry" />
        </mxCell>
      </root>
    </mxGraphModel>
  </diagram>
</mxfile>
